<svg version="1.2" xmlns="http://www.w3.org/2000/svg" viewBox="0 0 212 162" width="212" height="162">
  <path fill="#ff6b6b" fill-rule="evenodd" d="m10 156c0 0 17.8-5.5 44.9-9.4-1.9-2-5-5.8-10-13.4-8-12-12.9-29.2-12.9-29.2 0 0 8.9 4.7 20.7 7.8 8.3 2.2 18 2.9 18 2.9 0 0 3.6-6.7 10.1-8.3 9.1-2.2 46.1-4 50.5-3.1 7 1.4 6.4 11.3 6.5 11.4 1.6-0.2 11-1.1 20.1-4.1 9.7-3.2 19.1-8.6 19.1-8.6 0 0 0.8 12.4-10.8 31.1-3.8 6.3-6.7 10.2-8.7 12.5 34.9 3.5 47.5 8.4 47.5 8.4 0 0-51.8-4.1-99-4.6-53.6-0.5-96 6.6-96 6.6zm113.2-12.9q1.3 0 2.6 0.1c11.5 0.3 15.2 0.8 15.2 0.8 0 0 4.2-3.3 10.2-10.7 5.7-7.1 6.9-11.9 6.9-11.9 0 0-19 7.6-57.5 6.7-27.2-0.6-49.3-5.7-49.3-5.7 0 0 1.2 4.2 8.9 14.6 3.6 4.9 6.1 7 7.6 7.9q4.2-0.4 8.6-0.8c3.1-0.4 7.7-0.8 14.2-1 10.4-0.5 21.4-0.6 32.6 0zm-68.2-49.1c0 0 6.9-14.1 23.7-42.1 16.8-28 28.3-41 28.3-41l-0.3 70.1c0 0-11-0.6-22.1 1.5-14.6 2.8-29.6 11.5-29.6 11.5zm29.8-38.5c-6.8 10.7-14.5 24.9-14.5 24.9 0 0 8.9-3.4 18.1-4.7 9.1-1.4 11.1-0.9 11.1-0.9l0.4-41.4c0 0-8.3 11.4-15.1 22.1zm58.7-6.3c11.3 30.1 7.5 53.8 7.5 53.8 0 0-3.2-6.1-12.1-11.6-13.6-8.3-27.9-9.4-27.9-9.4l-0.2-78.2c0 0 21 14.6 32.7 45.4zm-25.5-27.2l0.6 53.9c0 0 5.3 0.3 15 4.2 5.2 2.1 9.5 5.3 9.5 5.3 0 0-1.1-17.9-6.6-33.2-7.3-20.2-18.5-30.2-18.5-30.2zm-38.6 93.1c1.8 0.2 45.3 0.8 50.2 0.4-0.3-0.6 0.6-6.6-2.3-7.2-5.5-1.1-30.1 0.8-40.9 2.1-5.9 0.8-6.5 4-7 4.7z"/>
</svg>